<svg width="45" height="45" viewBox="0 0 45 45" fill="none" xmlns="http://www.w3.org/2000/svg">
<path d="M22.5 22.5C27.6777 22.5 31.875 18.3027 31.875 13.125C31.875 7.94733 27.6777 3.75 22.5 3.75C17.3223 3.75 13.125 7.94733 13.125 13.125C13.125 18.3027 17.3223 22.5 22.5 22.5Z" stroke="#ffffff" stroke-width="4"/>
<path d="M31.8751 41.25H9.87386C9.34208 41.2501 8.81635 41.1371 8.33157 40.9185C7.8468 40.6999 7.41405 40.3807 7.06207 39.9821C6.71008 39.5835 6.4469 39.1146 6.29 38.6065C6.13309 38.0983 6.08605 37.5627 6.15199 37.035L6.88324 31.1775C7.05329 29.8167 7.71464 28.5648 8.74292 27.6574C9.7712 26.75 11.0956 26.2495 12.467 26.25H13.1251" stroke="#ffffff" stroke-width="4" stroke-linecap="round" stroke-linejoin="round"/>
<path d="M35.625 24.375V35.625" stroke="#ffffff" stroke-width="4" stroke-linecap="round" stroke-linejoin="round"/>
<path d="M30 30H41.25" stroke="#ffffff" stroke-width="4" stroke-linecap="round" stroke-linejoin="round"/>
</svg>
